HIERARCHY
ROOT root
{
	OFFSET 0.000000 0.000000 0.000000
	CHANNELS 6 Xposition Yposition Zposition Zrotation Yrotation Xrotation
	JOINT lhip
	{
		OFFSET 0.058581 -0.082280 -0.017664
		CHANNELS 3 Zrotation Yrotation Xrotation
		JOINT lknee
		{
			OFFSET 0.043451 -0.386469 0.008037
			CHANNELS 3 Zrotation Yrotation Xrotation
			JOINT lankle
			{
				OFFSET -0.014790 -0.426874 -0.037428
				CHANNELS 3 Zrotation Yrotation Xrotation
				JOINT ltoe
				{
					OFFSET 0.041054 -0.060286 0.122042
					CHANNELS 3 Zrotation Yrotation Xrotation
					End Site
					{
						OFFSET 0.000000 0.000000 0.000000
					}
				}
			}
		}
	}
	JOINT rhip
	{
		OFFSET -0.060310 -0.090513 -0.013543
		CHANNELS 3 Zrotation Yrotation Xrotation
		JOINT rknee
		{
			OFFSET -0.043257 -0.383688 -0.004843
			CHANNELS 3 Zrotation Yrotation Xrotation
			JOINT rankle
			{
				OFFSET 0.019056 -0.420046 -0.034562
				CHANNELS 3 Zrotation Yrotation Xrotation
				JOINT rtoe
				{
					OFFSET -0.034840 -0.062106 0.130323
					CHANNELS 3 Zrotation Yrotation Xrotation
					End Site
					{
						OFFSET 0.000000 0.000000 0.000000
					}
				}
			}
		}
	}
	JOINT lowerback
	{
		OFFSET 0.004439 0.124404 -0.038385
		CHANNELS 3 Zrotation Yrotation Xrotation
		JOINT upperback
		{
			OFFSET 0.004488 0.137956 0.026820
			CHANNELS 3 Zrotation Yrotation Xrotation
			JOINT chest
			{
				OFFSET -0.002265 0.056032 0.002855
				CHANNELS 3 Zrotation Yrotation Xrotation
				JOINT lowerneck
				{
					OFFSET -0.013390 0.211636 -0.033468
					CHANNELS 3 Zrotation Yrotation Xrotation
					JOINT upperneck
					{
						OFFSET 0.010113 0.088937 0.050410
						CHANNELS 3 Zrotation Yrotation Xrotation
						End Site
						{
							OFFSET 0.000000 0.000000 0.000000
						}
					}
				}
				JOINT lclavicle
				{
					OFFSET 0.071702 0.114000 -0.018898
					CHANNELS 3 Zrotation Yrotation Xrotation
					JOINT lshoulder
					{
						OFFSET 0.122921 0.045205 -0.019046
						CHANNELS 3 Zrotation Yrotation Xrotation
						JOINT lelbow
						{
							OFFSET 0.255332 -0.015649 -0.022946
							CHANNELS 3 Zrotation Yrotation Xrotation
							JOINT lwrist
							{
								OFFSET 0.265709 0.012698 -0.007375
								CHANNELS 3 Zrotation Yrotation Xrotation
								End Site
								{
									OFFSET 0.000000 0.000000 0.000000
								}
							}
						}
					}
				}
				JOINT rclavicle
				{
					OFFSET -0.082954 0.112472 -0.023707
					CHANNELS 3 Zrotation Yrotation Xrotation
					JOINT rshoulder
					{
						OFFSET -0.113228 0.046853 -0.008472
						CHANNELS 3 Zrotation Yrotation Xrotation
						JOINT relbow
						{
							OFFSET -0.260127 -0.014369 -0.031269
							CHANNELS 3 Zrotation Yrotation Xrotation
							JOINT rwrist
							{
								OFFSET -0.269108 0.006794 -0.006027
								CHANNELS 3 Zrotation Yrotation Xrotation
								End Site
								{
									OFFSET 0.000000 0.000000 0.000000
								}
							}
						}
					}
				}
			}
		}
	}
}
MOTION
Frames: 10
Frame Time: 0.033333
-1.871298 1.823283 0.954441 58.176502 -0.430811 89.457482 -5.155021 -6.713035 -9.023452 -2.591641 -5.260148 22.246760 9.386312 19.701956 -29.242860 0.000000 -0.000000 0.000000 2.196010 2.333964 -25.807781 0.960640 -6.795129 47.390519 3.659931 -6.961279 -17.802505 0.000000 -0.000000 0.000000 -0.020175 2.272479 22.583839 -0.293066 2.979203 1.177602 0.737444 1.600287 2.075903 -3.323224 1.615296 3.478425 1.824237 -1.801360 -1.682014 -20.322587 3.241441 5.957608 -64.481727 1.835489 11.157727 -0.292421 -31.111810 2.402797 17.971130 -10.171534 -26.379107 20.138031 2.873166 7.099004 65.478721 -1.900930 13.568000 -3.071866 29.760872 -1.781365 -8.784922 5.366372 -13.949253 
-1.867281 1.821639 0.954878 57.835922 -0.116124 88.988438 -4.616196 -6.096219 -8.238432 -3.258105 -5.707644 22.387871 10.221391 20.125951 -29.437928 0.000000 -0.000000 0.000000 1.487491 1.590025 -28.342359 2.025725 -6.979235 52.233700 4.122208 -5.647313 -12.179199 0.000000 -0.000000 0.000000 0.130456 1.291622 22.490482 -0.150171 2.706440 1.766407 0.492642 2.144826 2.090941 -3.051221 1.722005 2.771097 1.479565 -1.527514 -1.145658 -19.927568 3.515132 5.406915 -64.517904 1.833497 11.227037 -0.872514 -30.725985 2.771798 18.346679 -9.595824 -26.185071 20.419273 2.821353 6.995124 65.491617 -1.439488 13.733627 -3.497918 29.642861 -2.975935 -9.152068 5.173294 -13.209343 
-1.863433 1.820084 0.956436 57.762578 0.117966 88.818200 -3.975233 -5.699117 -8.281017 -4.257711 -6.141986 23.590556 10.476828 19.281164 -28.481140 0.000000 -0.000000 0.000000 0.746062 0.748720 -30.842213 2.989154 -7.251313 55.734305 4.470099 -5.155994 -5.021463 0.000000 -0.000000 0.000000 0.244984 0.811600 22.536557 0.127257 2.673512 2.098206 0.445825 2.010168 1.838647 -3.230743 1.197419 2.557394 1.412861 -1.238984 -1.435257 -20.100096 3.662417 5.529642 -64.378529 1.729915 11.150408 -1.078761 -30.828396 2.892499 18.722714 -9.519428 -26.103054 20.689366 2.528109 6.989692 65.173991 -1.208410 13.608852 -3.861239 29.674739 -3.878637 -10.119093 5.115164 -13.124948 
-1.859252 1.818152 0.960434 57.706194 0.369478 88.650501 -3.419903 -5.636005 -9.600558 -5.233022 -6.798715 27.336593 10.604804 17.708889 -25.345911 0.000000 -0.000000 0.000000 -0.180301 -0.242936 -33.534396 3.846390 -7.911880 58.315976 5.722761 -4.762269 6.012531 0.000000 -0.000000 0.000000 0.264954 0.441553 23.002450 0.433287 2.784992 2.073562 0.467982 1.832821 1.434693 -3.499312 0.423956 1.961434 1.584367 -0.340010 -0.986164 -20.560480 3.950026 5.537386 -64.084822 1.256306 11.207532 -0.868907 -30.603174 2.544490 17.466257 -10.041998 -26.222992 21.411731 2.308124 7.056015 64.200669 -0.835215 13.731946 -3.595727 29.243519 -4.638263 -8.309294 5.970538 -12.910773 
-1.857286 1.817748 0.964580 57.610421 -0.278516 88.971843 -3.516747 -7.331169 -11.247989 -5.250641 -3.721617 29.665133 10.245541 16.151438 -22.806124 0.000000 -0.000000 0.000000 -1.688929 -0.818397 -34.939334 4.218075 -8.363414 58.755995 6.131918 -4.714472 11.785316 0.000000 -0.000000 0.000000 -0.438627 1.067792 22.542718 0.457642 2.246754 4.121721 0.777436 1.731532 -0.806892 -4.375920 0.458206 2.132619 2.906920 -0.353828 -0.402050 -19.299310 2.049695 5.764489 -66.026085 2.119007 8.061241 -0.455309 -29.321312 -0.585826 14.816806 -13.099348 -21.113377 20.553747 4.342770 7.621917 65.642957 -2.062617 11.951149 -4.722003 29.662517 -7.740001 -7.652452 4.266350 -9.196537 
-1.854989 1.816604 0.969434 57.505761 -0.607958 89.005069 -2.879208 -6.909708 -13.401575 -6.375395 -2.257926 33.263406 9.159015 13.196820 -19.073913 0.000000 -0.000000 0.000000 -2.135323 -1.490114 -35.389096 4.162653 -7.626947 58.251598 7.338634 -3.230908 18.012589 0.000000 -0.000000 0.000000 -0.784083 1.771493 23.436216 0.573537 2.232956 3.080239 0.941784 1.375119 -0.691201 -4.770041 -0.007219 2.630535 3.468962 -0.272087 -0.792975 -19.221168 1.582964 6.381988 -66.272290 1.802802 7.729043 0.070775 -28.872350 -0.630062 13.760069 -13.299984 -20.299730 20.451709 4.245317 7.961239 65.845702 -1.970347 11.659949 -4.700372 29.578657 -7.025614 -6.818810 4.179448 -9.064769 
-1.853137 1.815539 0.974189 57.527472 -0.734274 89.500703 -1.953398 -5.660760 -16.293578 -7.215931 -0.877876 37.126755 8.069203 9.659608 -14.897602 0.000000 -0.000000 0.000000 -2.055610 -1.801823 -35.709377 4.288666 -6.954460 57.196110 7.200503 -3.244147 21.447742 0.000000 -0.000000 0.000000 -1.028598 1.742490 23.348342 0.495020 2.183136 3.366604 0.854640 1.685116 -0.700984 -4.892685 -0.566358 1.366994 3.989714 -0.057642 -0.795228 -18.900281 2.112739 5.890236 -66.218066 1.609482 7.714344 -0.071242 -29.054506 -0.568648 13.294858 -14.753019 -21.036189 20.708782 4.194625 7.746583 65.598021 -1.914402 12.077642 -4.495157 29.446051 -6.946876 -6.493879 4.586132 -8.744409 
-1.851574 1.815045 0.978510 57.652880 -0.994469 89.961670 -0.773717 -5.405316 -19.910470 -8.005185 1.711379 41.671886 5.918525 6.001777 -10.237925 0.000000 -0.000000 0.000000 -2.085774 -1.954677 -35.710864 3.978083 -6.696541 56.330338 6.654796 -2.749697 22.526048 0.000000 -0.000000 0.000000 -1.019434 1.864940 23.127244 0.474824 1.862740 3.268672 0.738458 1.541013 -0.792324 -5.591723 -1.114335 2.109401 4.431456 0.494074 -1.258852 -18.947787 1.766552 6.593614 -66.159730 1.747680 6.839134 0.474676 -29.577105 -1.275833 11.272325 -14.488949 -20.262844 20.241666 4.700961 8.551099 66.024337 -1.544659 11.685286 -4.168383 29.394338 -6.540029 -6.229314 4.262909 -7.120623 
-1.849473 1.814615 0.982581 57.785104 -1.673506 90.057124 -1.368437 -4.636117 -21.595163 -7.706615 1.739748 43.769933 4.979345 3.856816 -5.200627 0.000000 -0.000000 0.000000 -2.275502 -2.323216 -35.306789 3.453877 -6.346114 55.728964 5.737269 -2.580408 22.507403 0.000000 -0.000000 0.000000 -1.556358 1.977426 23.226782 0.411730 1.411614 3.945797 0.556649 1.663084 -1.280795 -5.779207 -1.117033 2.196822 4.977989 0.415409 -1.389978 -19.038845 1.532019 6.645481 -65.865801 2.003768 7.014185 0.361428 -29.625381 -1.970039 13.591036 -15.290589 -21.018193 20.553465 4.749282 8.657599 65.711975 -1.610802 11.498226 -3.794556 30.071592 -6.492876 -6.286104 4.108550 -6.866281 
-1.846316 1.813736 0.986701 57.426228 -2.070339 90.072222 -0.721119 -4.909298 -24.145381 -7.989370 3.975430 46.477497 3.032343 1.973738 2.308364 0.000000 -0.000000 0.000000 -1.908823 -1.903865 -34.891367 2.462542 -6.193899 55.064671 3.825468 -2.964759 22.788872 0.000000 -0.000000 0.000000 -1.690863 2.428058 23.179582 0.405202 1.362501 4.234550 0.358291 1.554707 -1.123941 -6.051741 -1.353530 2.644956 5.342411 0.583001 -1.172564 -19.112677 1.635007 6.647797 -66.000010 1.472442 6.822288 0.914811 -28.842271 -2.197385 13.612971 -15.771209 -20.364279 20.406870 4.906619 9.036630 66.282294 -1.265390 11.557412 -4.765709 30.459548 -6.643376 -5.950513 5.120657 -7.445695 
